PathFileType	4	(X/Y/Z)	C:/Users/beibeiliu/ov580/test_trc/User3\sequence.18_training_dense_right.trc
DataRate	CameraRate	NumFrames	NumMarkers	Units	OrigDataRate	OrigDataStartFrame	OrigNumFrames
120	120	24	19	mm	120	131	261
Frame#	Time	ThumbCMC			ThumbMCP			ThumbIP			ThumbTip			IndexMCP			IndexPIP			IndexTip			MiddleMCP			MiddlePIP			MiddleTip			RingMCP			RingPIP			RingTip			PinkyMCP			PinkyPIP			PinkyTip			BackHand1			BackHand2			BackHand3	
		X0	Y0	Z0	X1	Y1	Z1	X2	Y2	Z2	X3	Y3	Z3	X4	Y4	Z4	X5	Y5	Z5	X6	Y6	Z6	X7	Y7	Z7	X8	Y8	Z8	X9	Y9	Z9	X10	Y10	Z10	X11	Y11	Z11	X12	Y12	Z12	X13	Y13	Z13	X14	Y14	Z14	X15	Y15	Z15	X16	Y16	Z16	X17	Y17	Z17	X18	Y18	Z18	
130	1.08333	125.588	12.514	40.3386	108.042	26.4868	16.1799	95.7524	36.0893	-6.59327	83.3635	41.9022	-23.0655	113.806	4.04353	-35.4785	85.5431	-9.74035	-30.3081	95.8394	-16.0975	1.29881	120.08	-17.9506	-40.7305	95.5992	-31.6856	-25.1339	111.916	-24.915	7.13399	131.41	-31.3365	-37.7356	106.148	-46.0632	-28.0854	111.098	-39.6666	5.90884	152.174	-35.8912	-32.6261	147.496	-42.8098	-50.2563	138.568	-44.2469	-73.9092	169.576	-12.8132	3.78251	178.113	-21.1177	35.1301	155.557	9.36067	23.4804	
131	1.09167	118.43	3.8886	40.5459	99.6464	12.5278	23.9563	82.0431	25.8056	-0.952642	71.4179	29.5521	-17.1348	109.92	4.6736	-31.9093	87.8583	-20.0588	-34.525	94.5895	-22.6042	-0.924159	125.335	-14.2314	-38.0284	102.348	-39.137	-28.7591	119.71	-33.6288	5.25216	138.856	-27.4179	-37.0457	116.786	-49.6695	-33.5225	120.805	-46.9522	1.47827	160.901	-28.7046	-32.0198	154.076	-32.1997	-54.1922	151.636	-33.7405	-74.056	167.804	-7.51668	9.11802	177.181	-11.761	34.2262	148.87	10.4907	25.8583	
132	1.1	110.192	-6.36325	47.0888	91.9764	1.10961	25.9369	74.4694	12.6377	0.973915	65.7388	13.4068	-17.8153	111.62	-3.39135	-31.6454	93.8616	-30.525	-36.9864	98.928	-31.846	0.372914	122.7	-13.5013	-38.4505	108.149	-45.9784	-33.3584	120.445	-42.0525	1.41142	140.365	-26.3798	-38.6223	124.356	-51.0467	-38.7101	123.795	-51.4445	-3.00293	164.775	-24.9603	-29.2501	157.519	-25.0779	-54.4117	153.287	-25.8911	-72.7992	168.492	-4.76044	10.988	176.297	-13.382	39.7728	142.683	7.7126	34.1753	
133	1.10833	107.197	-16.004	46.8594	90.997	-10.0548	20.6827	73.9811	-3.57034	2.18261	60.9508	-0.172226	-18.1045	103.869	-9.21865	-33.0427	92.4194	-38.7453	-35.5573	104.999	-42.702	-2.87266	124.741	-22.141	-40.3624	108.82	-48.8292	-37.7931	122.876	-48.5154	0.29717	142.96	-28.0984	-38.7384	131.768	-56.2436	-40.3205	132.592	-59.828	-6.48607	166.462	-24.1058	-32.9248	161.889	-24.9063	-56.0519	155.597	-24.1514	-71.6395	163.398	-7.32739	10.6089	168.968	-10.6764	38.2998	135.723	1.68842	33.2615	
134	1.11667	109.382	-23.6673	44.4286	89.6366	-19.8699	22.8836	66.0053	-10.149	1.41041	54.9894	-7.72944	-19.1701	105.604	-16.9272	-33.8667	90.3622	-46.3545	-37.1127	102.232	-48.3371	-2.55959	119.959	-26.6333	-40.7013	111.197	-58.7392	-36.3019	125.326	-50.8362	2.74427	138.982	-32.2718	-39.6583	130.112	-61.2803	-40.4782	128.786	-60.7251	-3.26803	163.751	-27.5255	-29.2587	157.276	-27.9122	-55.029	154.687	-27.6171	-73.8919	160.648	-9.16492	12.9891	168.542	-17.2782	41.8563	137.379	-3.95127	33.338	
135	1.125	105.377	-26.4397	41.7598	84.0417	-23.8954	22.3637	64.1984	-17.3554	-0.655574	54.9834	-17.062	-20.2945	101.611	-24.0992	-33.424	94.8038	-56.7083	-37.5397	103.915	-57.2813	-4.37231	121.285	-37.9502	-42.4704	112.206	-67.3616	-35.1675	121.879	-59.8246	1.47706	137.608	-43.1203	-41.6758	129.341	-71.5826	-35.0988	131.559	-69.5034	-4.31075	162.223	-34.9937	-31.4036	160.074	-36.2835	-56.762	157.751	-36.3968	-76.3788	159.474	-16.0089	7.17164	167.268	-18.4888	40.4046	132.882	-9.03591	27.3646	
136	1.13333	104.014	-31.3806	42.8315	86.8307	-30.2128	18.3636	67.628	-26.5693	-2.68373	54.3412	-25.2463	-22.347	106.012	-33.8444	-35.1158	90.5612	-65.1207	-35.6652	103.883	-61.3059	-1.83078	121.566	-46.3837	-41.358	109.836	-74.4066	-34.4258	122.01	-64.4694	2.31083	141.364	-50.9662	-38.9011	131.628	-78.9759	-33.9381	131.4	-74.4549	1.19938	162.303	-41.5415	-32.0829	160.566	-46.9172	-55.8233	156.084	-47.1612	-76.2645	159.253	-19.5729	5.52873	168.36	-24.3453	38.5201	132.887	-11.6243	25.7193	
137	1.14167	101.833	-33.4795	41.8204	84.1373	-33.5652	16.9821	63.5914	-29.6194	-5.00793	53.6956	-34.0689	-21.8053	101.947	-45.1615	-36.9842	91.1429	-73.9929	-30.4778	99.717	-67.1885	1.72373	120.028	-54.933	-39.5335	108.684	-84.1554	-25.0717	119.174	-66.2889	6.5463	138.707	-61.4175	-39.2012	127.598	-88.8001	-26.2061	127.926	-77.0652	5.67774	160.125	-49.7974	-34.6134	159.91	-55.5835	-53.6208	160.687	-62.5607	-76.8353	161.405	-24.9694	5.7613	162.847	-22.0728	35.743	128.234	-14.8286	23.9044	
138	1.15	100.471	-33.5452	40.4333	82.0817	-35.7364	18.7248	62.1832	-34.7386	-4.40525	47.7434	-37.7962	-22.0718	101.295	-53.7897	-35.2492	89.3523	-82.2364	-23.2074	100.477	-71.1556	5.18955	117.283	-64.296	-37.9594	107.926	-89.9543	-18.4292	120.819	-72.658	9.19802	137.297	-67.7611	-33.0834	128.495	-96.617	-19.6837	125.512	-81.5707	10.4903	159.484	-58.5698	-32.2899	157.793	-66.526	-50.9831	158.64	-74.1054	-73.2217	156.475	-27.9443	3.08622	165.08	-25.8382	33.4647	129.532	-18.63	24.9468	
139	1.15833	104.117	-33.2421	40.4808	85.4729	-36.8583	16.2461	63.0337	-37.0173	-4.40637	52.4673	-42.6431	-21.0541	95.977	-58.3608	-31.7651	85.7042	-85.2164	-15.8632	95.7245	-72.1036	9.58303	114.77	-70.5471	-33.5521	104.988	-94.8485	-11.3725	119.182	-73.3993	14.3519	132.339	-75.2952	-27.7729	123.586	-101.256	-13.8357	125.268	-82.7365	17.5849	160.015	-70.4207	-28.9608	156.096	-78.1165	-44.1967	155.032	-89.0579	-66.9201	155.89	-34.4305	3.40929	165.302	-27.7011	33.7824	132.015	-19.8457	22.2521	
140	1.16667	104.859	-29.2626	38.1143	81.769	-32.5257	19.8155	64.5921	-37.1856	-0.181268	51.9557	-42.5908	-19.9065	96.1411	-60.9672	-26.5734	84.9402	-88.0608	-8.49414	93.224	-68.2079	16.0938	112.833	-74.5778	-26.8759	98.168	-96.6674	-2.87577	116.864	-73.2599	21.3647	131.357	-86.6052	-22.3827	115.264	-104.771	-2.6967	123.259	-83.3136	25.5948	156.607	-78.5821	-19.5275	151.919	-89.7875	-36.5816	146.794	-105.158	-59.7667	160.141	-42.9489	7.68843	165.172	-32.9535	32.6099	130.68	-19.8521	20.7811	
141	1.175	103.465	-23.1007	41.9548	84.3994	-32.1094	18.142	63.4627	-33.4505	-2.41633	52.4136	-43.0674	-17.297	89.5457	-66.0617	-22.5026	78.8334	-87.3069	-2.54472	92.1261	-67.5752	20.4676	109.684	-81.1075	-19.3051	90.038	-95.217	4.97103	109.977	-70.6378	27.2637	119.688	-90.0954	-14.1347	108.801	-105.446	10.0308	113.39	-83.7282	32.005	152.474	-88.6209	-13.1694	142.725	-104.034	-31.0658	137.419	-120.297	-43.9802	154.878	-45.7934	6.05101	168.676	-35.4419	34.7646	136.221	-23.8015	19.5548	
142	1.18333	104.421	-20.0106	37.542	83.5025	-25.2134	20.803	64.774	-30.7103	-1.93986	52.2877	-39.4393	-14.2695	86.8514	-65.9207	-17.4308	68.2566	-80.1846	3.59632	84.3982	-60.8662	25.726	98.6229	-83.3951	-13.228	83.6571	-94.4195	11.6536	107.614	-64.6715	30.2521	110.586	-94.9425	-5.85721	95.5379	-102.673	15.9522	109.823	-75.6953	38.658	139.914	-94.2444	-8.18854	128.34	-107.288	-20.9607	117.228	-129.187	-32.3036	152.781	-50.6484	11.9433	167.518	-41.7085	31.5553	134.664	-21.9162	17.516	
143	1.19167	108.936	-17.6302	36.7278	86.4876	-20.5267	21.8062	64.6214	-25.3209	-1.68687	50.4345	-32.6057	-17.2684	81.7706	-60.6095	-13.5441	59.636	-71.5604	10.3961	81.1425	-56.1865	29.1104	91.2354	-80.6874	-8.02715	72.6774	-88.1782	18.6592	99.8617	-60.2972	34.6272	103.973	-91.2881	0.846848	86.982	-97.3382	30.0302	100.838	-72.7287	44.4224	129.807	-97.5201	1.27333	114.234	-113.045	-10.1869	92.0011	-126.248	-17.9851	147.811	-56.6169	8.68127	163.999	-42.7505	37.596	134.731	-26.7789	18.4091	
144	1.2	112.976	-10.8923	39.085	86.8816	-14.1121	20.102	66.9678	-19.5273	0.0815021	49.1149	-22.7704	-13.015	74.1247	-59.0085	-11.4963	53.9519	-65.5845	13.6615	71.7658	-45.5043	31.3167	82.5605	-74.2881	-3.63063	63.4196	-77.2536	24.533	91.4913	-55.4399	39.2989	90.7205	-90.4244	7.73188	75.7198	-91.7528	31.9561	96.1211	-66.2452	49.5152	118.353	-101.423	7.14102	95.5295	-114.546	-3.22491	76.263	-122.817	-1.89572	141.43	-63.0546	13.2095	162.432	-46.4563	37.6126	136.817	-28.6446	14.7622	
145	1.20833	115.324	-8.20712	35.37	89.0304	-11.7829	17.2544	66.0733	-11.4489	0.517954	48.4247	-15.7649	-12.7239	71.6375	-55.8622	-8.22464	47.7986	-54.8651	12.104	69.6111	-36.2168	32.3455	76.7207	-71.3525	-0.934209	54.8182	-67.5962	26.1209	87.3591	-50.013	42.1223	82.7883	-84.4349	11.1781	65.6448	-79.6218	38.0862	90.2495	-59.8184	51.6789	107.561	-97.1629	13.3521	85.5114	-109.481	5.92979	59.8497	-117.877	13.4927	140.463	-66.674	18.9512	159.142	-51.7422	37.6304	138.606	-32.115	15.995	
146	1.21667	118.673	-6.47068	29.8624	94.2661	-6.88656	18.645	68.7581	-8.05679	-0.937029	50.4097	-9.89989	-9.02514	68.0171	-47.5538	-9.04135	46.0024	-41.7289	9.99545	72.1271	-28.8041	32.7354	72.0135	-64.6554	2.89732	52.174	-55.8098	29.0493	89.3767	-41.6167	41.2105	78.7854	-78.3615	16.5051	61.1324	-68.4415	40.6835	85.6035	-50.7824	52.6337	97.1464	-95.9958	17.7103	72.0167	-102.438	13.2056	46.7242	-97.851	22.249	134.708	-65.9379	17.267	155.293	-55.8734	39.7701	139.473	-31.8195	17.7236	
147	1.225	125.828	-2.93681	27.1102	99.7242	-1.48171	16.663	75.0108	-1.50824	0.248103	54.7935	-3.74418	-9.48082	72.7746	-43.4509	-5.9414	48.4252	-31.6945	12.8575	76.0332	-18.7842	30.9082	67.4733	-60.0108	6.6446	52.2808	-40.8079	30.9506	90.6955	-30.7374	38.628	73.7059	-69.5917	18.7697	57.1102	-57.8036	40.7704	85.3868	-41.4904	52.116	92.8767	-86.0452	25.3488	67.4303	-94.6635	20.5387	41.1507	-90.5984	26.4488	133.245	-66.5054	23.6054	152.865	-57.339	40.4049	142.479	-35.6133	18.6779	
148	1.23333	134.521	-3.78799	25.3989	106.741	3.79103	10.9482	81.3699	6.2156	-6.03036	62.3533	8.09025	-13.0491	72.872	-34.854	-8.76653	54.2269	-18.3355	12.7983	83.5445	-7.92448	26.654	67.5574	-48.9241	5.40351	52.3704	-31.4269	26.8754	92.8682	-26.5619	38.1364	69.7163	-60.2065	18.4673	55.6795	-45.7323	40.2267	85.8558	-31.55	48.2201	85.4928	-82.6712	26.8835	59.4314	-87.408	24.0559	34.3379	-77.6775	25.7201	128.101	-67.7745	26.5282	153.935	-59.3567	42.8224	145.944	-39.613	17.1179	
149	1.24167	143.812	-0.546561	21.4329	119.936	7.04105	9.50458	93.0366	14.7561	-11.0905	72.0616	13.9906	-17.6468	79.7609	-29.4415	-10.676	60.4286	-9.84681	4.85718	86.9692	-2.39914	23.7279	73.0641	-40.5796	0.668547	58.2399	-18.304	20.3915	96.7625	-19.5479	34.937	72.0612	-50.7844	14.9656	58.2041	-33.3902	33.1627	92.1765	-24.3737	45.0742	81.5902	-73.6518	25.6057	58.6935	-76.923	20.4984	33.7626	-71.625	17.7764	129.492	-65.161	24.743	153.057	-62.5549	43.2774	147.85	-37.3291	12.623	
150	1.25	151.424	-0.425094	19.1786	126.371	9.91021	1.70042	105.501	18.7898	-14.9108	85.285	24.1514	-28.2318	87.8014	-20.014	-19.2431	68.3187	2.10612	-4.91666	100.083	3.49874	15.2045	75.508	-33.8433	-5.35542	64.5631	-11.0333	15.4639	101.788	-15.2623	28.9709	76.2457	-46.3322	8.95664	62.3452	-23.3972	27.7426	90.6901	-16.0642	38.8712	85.173	-65.9745	19.9691	64.6794	-70.0819	14.3904	38.489	-69.548	8.04993	130.188	-62.6253	18.2685	153.281	-60.2944	37.6698	151.117	-37.3064	10.0916	
151	1.25833	156.502	1.99479	13.8309	136.623	15.8566	-2.49657	114.516	20.4629	-22.8265	96.2092	27.591	-34.7327	97.5669	-14.297	-27.3226	76.026	3.63459	-11.8375	105.279	4.49678	10.6865	85.2549	-31.3377	-14.4848	69.1384	-6.98015	2.4279	104.317	-6.8867	20.8583	76.8141	-43.0166	-0.244187	65.6228	-21.0257	17.5938	91.7789	-14.434	32.5381	87.9855	-65.9806	13.3849	67.1606	-65.4698	2.39729	43.4903	-64.4626	-4.99921	135.455	-58.8518	13.9048	157.645	-60.4246	39.348	157.347	-33.9843	7.63685	
152	1.26667	160.431	3.27854	15.3609	143.894	18.663	-4.2457	123.979	29.2914	-30.9188	108.59	33.7314	-43.1349	106.007	-13.9109	-32.99	84.4065	7.27007	-19.9927	108.595	7.22356	3.86779	89.9056	-27.1665	-25.3953	77.3762	-4.23653	-8.11686	107.37	-9.36896	16.2501	89.4758	-42.0653	-10.586	71.5238	-21.1713	0.226387	94.6547	-10.765	22.2983	96.7363	-60.4323	1.45601	73.0666	-63.571	-10.5078	56.5916	-61.6298	-20.1248	141.732	-60.3811	10.9981	163.203	-52.5477	34.5412	165.535	-28.5326	6.60905	
153	1.275	166.27	9.54219	16.7812	148.627	22.8847	-6.60475	131.679	32.4532	-33.3721	116.381	39.3384	-46.2528	116.949	-5.96152	-42.5604	92.5332	8.97323	-28.101	111.717	8.44633	-0.385874	108.515	-25.2294	-35.3867	84.6569	-6.71243	-16.2404	115.278	-5.74396	9.15346	100.031	-38.9669	-24.6682	80.5307	-22.6112	-8.73418	100.495	-14.7703	16.188	109.084	-60.0352	-11.507	89.0745	-60.5299	-25.8903	70.7682	-56.2667	-40.0785	151.604	-55.0499	3.80088	168.756	-52.6537	27.5293	172.844	-24.4785	6.25335	
